<?xml version="1.0" standalone="no"?>
<!DOCTYPE svg PUBLIC "-//W3C//DTD SVG 20010904//EN"
 "http://www.w3.org/TR/2001/REC-SVG-20010904/DTD/svg10.dtd">
<svg version="1.0" xmlns="http://www.w3.org/2000/svg"
 width="1024.000000pt" height="1024.000000pt" viewBox="0 0 1024.000000 1024.000000"
 preserveAspectRatio="xMidYMid meet">

<g transform="translate(0.000000,1024.000000) scale(0.100000,-0.100000)"
fill="#000000" stroke="none">
<path d="M0 5120 l0 -5120 5120 0 5120 0 0 5120 0 5120 -5120 0 -5120 0 0
-5120z m6607 3545 c18 -3 56 -23 85 -45 29 -21 64 -46 77 -56 13 -9 34 -40 48
-70 45 -99 26 -207 -56 -317 -53 -71 -628 -670 -680 -708 -110 -82 -52 -14
577 662 116 125 156 219 133 307 -12 44 -55 102 -75 102 -7 0 -123 -111 -258
-247 -221 -224 -244 -250 -235 -270 16 -37 1 -70 -38 -83 -30 -10 -40 -9 -60
4 -14 9 -25 21 -25 26 0 6 -221 10 -615 10 -605 0 -616 0 -682 -22 -57 -18
-78 -32 -129 -84 -38 -38 -74 -88 -95 -130 -33 -67 -34 -72 -34 -194 0 -120 1
-128 32 -192 38 -81 105 -155 172 -192 27 -14 89 -35 138 -46 80 -18 130 -20
553 -20 520 -1 526 -1 667 -69 245 -118 441 -327 550 -585 148 -349 127 -748
-58 -1131 -30 -61 -38 -86 -33 -112 5 -26 1 -37 -20 -57 -14 -15 -36 -26 -48
-26 -16 0 -47 -23 -93 -70 -90 -91 -216 -177 -358 -246 -210 -101 -117 -94
-1324 -94 -1133 0 -1092 -2 -1148 49 -11 10 -30 22 -42 25 -32 10 -88 79 -101
125 -7 21 -12 63 -12 93 0 93 30 137 264 382 422 441 595 610 611 594 8 -8
-138 -169 -451 -496 -357 -373 -391 -417 -380 -505 6 -58 40 -120 73 -138 24
-13 29 -9 146 111 66 69 177 182 246 252 98 100 123 130 113 140 -18 18 -14
53 8 73 23 21 72 24 94 6 23 -19 1365 -16 1459 4 167 35 291 148 347 315 19
55 21 82 18 175 -3 97 -7 117 -32 169 -38 77 -93 131 -174 169 l-67 32 -570 6
c-634 6 -606 3 -762 78 -238 114 -410 299 -526 564 -80 182 -99 272 -104 484
-10 398 76 651 306 895 78 84 231 193 344 247 114 55 269 101 364 109 101 8
1812 6 1860 -3z m1838 -4818 l0 -197 266 0 c298 0 327 -5 416 -66 40 -27 60
-50 83 -97 l30 -60 0 -476 c0 -262 -4 -482 -9 -489 -6 -10 -39 -14 -130 -13
-67 0 -126 3 -131 6 -6 4 -10 156 -10 411 0 436 -2 453 -52 486 -31 20 -43 21
-270 20 l-188 -2 0 -448 c0 -335 -3 -451 -12 -460 -8 -8 -54 -12 -140 -12
-116 0 -128 2 -138 19 -14 27 -14 1535 1 1562 9 18 20 19 147 17 l137 -3 0
-198z m-815 -33 l0 -164 153 0 c106 0 157 -4 165 -12 8 -8 12 -54 12 -140 l0
-128 -165 0 -165 0 0 -294 c0 -162 3 -302 6 -311 14 -35 58 -45 199 -45 123 0
155 -6 125 -25 -6 -4 -10 -55 -10 -119 0 -87 -3 -116 -14 -126 -11 -8 -67 -11
-203 -8 -182 3 -190 4 -239 30 -29 15 -68 46 -87 69 -65 75 -67 92 -67 481 l0
348 -84 0 c-46 0 -91 3 -100 6 -13 5 -16 26 -16 128 0 82 4 126 12 134 7 7 44
12 95 12 l83 0 0 148 c0 103 4 153 13 165 10 14 34 17 142 19 72 2 133 2 138
0 4 -2 7 -77 7 -168z m-5622 -301 l-3 -138 -300 -3 -300 -2 -32 -35 c-37 -39
-42 -78 -19 -124 25 -47 49 -51 290 -51 175 0 234 -3 276 -16 113 -34 204
-117 245 -226 26 -71 18 -195 -19 -266 -54 -105 -130 -167 -243 -196 -50 -13
-127 -16 -440 -16 -281 0 -382 3 -391 12 -8 8 -12 50 -12 125 0 101 2 113 19
123 13 6 155 10 395 10 l375 0 20 26 c28 35 26 72 -3 109 l-24 30 -259 5
c-254 5 -259 5 -315 32 -155 73 -237 230 -216 416 18 158 121 275 275 311 21
5 183 9 361 10 l323 1 -3 -137z m1843 122 c32 -9 76 -25 96 -37 61 -34 140
-117 165 -172 23 -50 23 -56 26 -502 2 -375 0 -453 -11 -462 -8 -7 -64 -15
-126 -18 -92 -4 -117 -3 -136 10 l-24 16 -3 421 -3 421 -33 29 -33 29 -202 -2
-202 -3 -5 -450 -5 -449 -25 -13 c-27 -13 -238 -8 -253 6 -4 4 -9 210 -10 457
l-2 449 -207 3 -208 2 0 -448 c0 -335 -3 -451 -12 -460 -8 -8 -54 -12 -140
-12 -116 0 -128 2 -138 19 -6 13 -10 214 -10 585 0 500 2 566 16 580 14 14 93
16 721 16 599 0 714 -2 764 -15z m1521 -9 c62 -23 137 -91 168 -152 25 -49 25
-49 28 -394 4 -422 1 -443 -87 -531 -38 -38 -75 -63 -116 -80 -59 -24 -65 -24
-385 -24 -311 0 -328 1 -384 22 -74 28 -121 64 -157 121 -47 74 -51 116 -47
492 3 337 4 346 26 388 32 59 85 117 130 138 84 41 115 43 452 41 284 -3 331
-5 372 -21z m1409 -7 c73 -35 128 -85 165 -151 l29 -53 0 -370 c0 -356 -1
-372 -21 -416 -44 -95 -140 -160 -264 -180 -44 -6 -176 -9 -348 -7 -262 4
-280 5 -336 27 -75 30 -137 87 -167 154 -24 52 -24 54 -24 437 0 349 2 388 18
417 28 52 77 103 121 125 89 46 104 47 446 45 l325 -2 56 -26z"/>
<path d="M4665 8611 c-106 -26 -172 -50 -260 -93 -425 -211 -635 -565 -635
-1069 0 -446 252 -869 622 -1044 138 -65 137 -65 718 -65 433 0 536 -3 589
-15 204 -49 321 -204 321 -430 0 -150 -51 -276 -155 -381 -33 -34 -83 -73
-111 -87 -112 -57 -116 -57 -820 -58 -357 0 -672 -4 -701 -8 -38 -5 -59 -15
-77 -34 -14 -15 -33 -27 -44 -27 -16 0 -351 -328 -472 -462 l-43 -48 39 -17
c35 -15 98 -16 639 -15 1164 2 1095 1 1095 15 0 21 36 49 57 45 10 -2 27 -17
38 -34 l20 -32 130 4 c72 2 152 6 179 9 145 18 419 164 568 303 55 52 60 60
49 79 -6 12 -11 31 -11 41 0 29 57 74 89 70 23 -3 30 5 58 57 132 249 193 584
149 831 -45 258 -177 514 -344 665 -73 66 -203 152 -289 191 -122 55 -154 58
-663 58 -512 0 -548 4 -659 60 -112 56 -181 136 -223 258 -34 100 -32 261 5
355 60 153 157 242 310 283 42 11 171 14 658 14 527 0 608 2 619 15 7 8 22 15
34 15 15 -1 96 76 273 257 249 254 253 258 232 275 -42 35 -88 38 -641 38
-452 0 -548 -2 -548 -13 0 -21 -34 -47 -62 -47 -25 0 -58 27 -58 48 0 9 -77
12 -302 11 -250 -1 -315 -4 -373 -18z m1190 -231 c26 -29 24 -79 -4 -102 -30
-23 -52 -23 -84 2 -24 19 -40 20 -551 20 l-525 0 -76 -24 c-151 -48 -288 -167
-379 -330 -27 -48 -60 -96 -74 -107 -14 -11 -27 -30 -29 -41 -2 -12 -8 -27
-14 -35 -8 -9 -8 -17 -1 -25 6 -8 12 -108 14 -243 6 -257 8 -271 88 -423 42
-81 136 -185 213 -238 88 -59 257 -124 325 -124 14 0 30 7 36 14 20 26 62 30
85 7 19 -19 33 -20 473 -23 502 -4 500 -4 647 -74 101 -47 189 -112 258 -189
44 -49 64 -65 85 -65 40 0 57 -10 74 -42 16 -31 12 -71 -8 -95 -7 -8 -11 -108
-12 -271 l-1 -257 -34 -98 c-59 -170 -172 -330 -305 -431 -83 -63 -125 -85
-233 -123 l-78 -28 -529 -3 c-506 -3 -530 -4 -554 -23 -32 -25 -63 -24 -90 1
-26 25 -29 76 -5 102 24 27 77 24 102 -7 l20 -26 538 3 538 3 80 34 c230 98
393 279 477 531 32 95 32 95 33 310 0 220 -6 260 -40 260 -39 0 -67 68 -45
109 21 41 -150 199 -285 262 -146 68 -152 69 -644 69 -381 0 -441 -2 -441 -15
0 -18 -31 -35 -64 -35 -23 0 -50 18 -58 40 -1 5 -39 16 -83 24 -56 11 -115 32
-195 72 -102 50 -125 67 -200 143 -68 68 -94 103 -127 171 -75 154 -76 160
-82 424 -6 219 -8 240 -25 250 -54 33 -68 49 -61 75 9 38 41 61 85 61 45 0 62
14 97 84 69 137 198 267 328 332 124 61 152 64 723 64 441 0 512 2 512 15 0
36 76 47 105 15z"/>
<path d="M5794 8339 c-10 -17 13 -36 27 -22 12 12 4 33 -11 33 -5 0 -12 -5
-16 -11z"/>
<path d="M4055 7811 c-3 -5 -1 -12 5 -16 12 -7 30 2 30 16 0 12 -27 12 -35 0z"/>
<path d="M4830 6680 c0 -11 5 -20 10 -20 6 0 10 9 10 20 0 11 -4 20 -10 20 -5
0 -10 -9 -10 -20z"/>
<path d="M6325 6326 c-22 -16 -16 -60 8 -64 28 -6 59 26 47 48 -13 24 -35 31
-55 16z"/>
<path d="M4600 5059 c0 -24 23 -21 28 4 2 10 -3 17 -12 17 -10 0 -16 -9 -16
-21z"/>
<path d="M5395 8620 c3 -5 8 -10 11 -10 2 0 4 5 4 10 0 6 -5 10 -11 10 -5 0
-7 -4 -4 -10z"/>
<path d="M6145 8011 c-8 -15 3 -31 21 -31 9 0 14 7 12 17 -4 20 -24 28 -33 14z"/>
<path d="M4084 5379 c-8 -14 18 -31 30 -19 9 9 0 30 -14 30 -5 0 -12 -5 -16
-11z"/>
<path d="M6463 5203 c-7 -2 -13 -11 -13 -18 0 -22 31 -26 59 -9 24 16 24 18 6
25 -23 9 -35 9 -52 2z"/>
<path d="M5410 4760 c0 -5 5 -10 10 -10 6 0 10 5 10 10 0 6 -4 10 -10 10 -5 0
-10 -4 -10 -10z"/>
<path d="M8200 3549 c0 -373 2 -450 13 -446 19 7 41 -8 33 -22 -4 -6 -16 -11
-27 -11 -18 0 -19 -10 -19 -290 l0 -290 100 0 100 0 2 463 3 462 230 3 c258 3
293 -3 336 -61 21 -28 24 -44 27 -142 3 -87 7 -112 20 -121 16 -12 16 -14 -1
-26 -16 -12 -17 -35 -15 -293 l3 -280 95 0 95 0 0 460 0 460 -29 52 c-16 29
-46 64 -66 78 -73 50 -109 55 -426 55 -172 0 -304 4 -319 10 -35 13 -27 34 13
38 l32 3 0 175 0 174 -100 0 -100 0 0 -451z"/>
<path d="M7381 3773 l2 -168 -97 -3 -96 -3 0 -90 0 -91 98 3 97 3 5 -389 c5
-428 4 -415 70 -482 54 -55 94 -64 280 -61 l165 3 0 90 0 90 -127 5 c-121 5
-129 6 -154 31 -14 14 -29 43 -34 65 -13 55 -13 600 0 625 10 18 23 19 171 19
l160 0 -3 93 -3 92 -155 3 c-85 1 -160 4 -167 7 -8 3 -11 50 -10 164 l2 161
-103 0 -103 0 2 -167z"/>
<path d="M1315 3586 c-105 -33 -173 -101 -205 -204 -24 -77 -25 -128 -5 -207
26 -98 78 -164 170 -213 50 -27 52 -27 310 -32 292 -6 292 -6 334 -81 26 -46
24 -89 -5 -135 -34 -52 -53 -54 -444 -54 l-360 0 0 -86 0 -85 393 3 c377 3
394 4 439 25 158 73 237 261 171 405 -32 69 -107 141 -176 167 -53 19 -77 21
-287 21 -137 0 -240 4 -257 11 -125 47 -132 222 -11 285 21 11 85 14 303 14
l275 0 0 90 0 90 -302 -1 c-215 0 -315 -4 -343 -13z"/>
<path d="M2400 3350 l0 -250 26 0 c31 0 28 -23 -4 -28 -22 -3 -22 -3 -22 -293
l0 -290 103 3 102 3 2 445 c1 245 2 451 3 458 0 19 488 18 496 -2 3 -7 6 -213
7 -457 l2 -444 98 0 98 0 -1 460 0 460 147 -3 c372 -6 348 -4 382 -36 17 -16
33 -44 37 -61 3 -17 6 -208 7 -425 l2 -395 103 -3 102 -3 0 281 c0 273 0 280
-20 280 -11 0 -20 7 -20 15 0 8 9 15 20 15 19 0 20 7 20 140 0 86 -5 150 -12
167 -41 95 -117 162 -220 195 -53 16 -96 18 -363 18 l-304 0 -3 -57 c-2 -46
-7 -59 -20 -61 -16 -3 -18 5 -18 57 l0 61 -375 0 -375 0 0 -250z"/>
<path d="M4628 3586 c-26 -7 -55 -19 -65 -26 -52 -39 -78 -70 -99 -115 -22
-45 -24 -63 -24 -197 0 -144 0 -147 23 -150 29 -4 29 -32 -1 -36 l-24 -4 4
-192 3 -193 30 -49 c39 -61 93 -99 173 -119 52 -14 113 -16 355 -13 274 3 295
5 347 26 65 26 121 79 149 142 18 40 21 66 21 222 0 174 0 177 -22 180 -32 5
-35 28 -4 28 l26 0 0 146 c0 180 -9 213 -75 281 -78 80 -98 83 -464 82 -213 0
-320 -4 -353 -13z m633 -192 c46 -23 59 -67 59 -193 0 -106 1 -110 23 -113 12
-2 22 -7 22 -13 0 -5 -10 -11 -22 -13 -23 -3 -23 -5 -23 -168 0 -162 0 -165
-25 -189 -13 -14 -35 -25 -49 -25 -19 0 -25 -6 -28 -27 -4 -34 -32 -38 -36 -5
l-3 22 -215 0 c-225 0 -269 7 -300 48 -17 22 -20 585 -3 629 24 65 16 63 306
63 220 0 269 -3 294 -16z"/>
<path d="M4716 3354 c-14 -13 -16 -56 -16 -311 0 -270 2 -297 18 -309 21 -16
485 -20 526 -4 l26 10 0 284 c0 156 -3 292 -6 301 -15 39 -53 45 -298 45 -200
0 -237 -2 -250 -16z"/>
<path d="M6030 3585 c-58 -18 -128 -78 -151 -129 -16 -34 -19 -67 -19 -203 l0
-163 25 0 c16 0 25 -6 25 -15 0 -9 -9 -15 -25 -15 l-25 0 0 -182 c0 -171 2
-186 24 -233 29 -61 65 -97 131 -127 49 -23 57 -23 375 -23 317 0 326 1 374
23 75 34 111 66 140 124 25 50 26 57 26 240 0 184 0 188 -21 188 -12 0 -19 5
-16 13 2 6 12 11 21 11 14 -2 16 15 16 145 0 121 -4 153 -19 187 -28 62 -84
119 -144 145 -51 23 -59 24 -372 26 -253 2 -329 -1 -365 -12z m662 -203 c21
-21 23 -33 26 -152 4 -130 4 -130 28 -130 31 0 32 -27 2 -32 -23 -3 -23 -6
-28 -181 -5 -162 -7 -180 -24 -193 -11 -8 -30 -14 -42 -14 -17 0 -23 -7 -26
-27 -4 -34 -32 -38 -36 -6 -5 31 -58 37 -268 29 -146 -6 -178 -4 -203 9 -17 8
-34 23 -39 33 -5 9 -9 90 -8 179 1 163 1 163 -21 163 -14 0 -23 6 -23 15 0 9
9 15 23 15 22 0 22 1 19 139 -2 91 0 147 8 161 11 21 15 21 300 18 286 -3 290
-3 312 -26z"/>
<path d="M6120 3055 c0 -300 1 -315 19 -325 21 -11 487 -15 515 -4 14 5 16 42
16 303 0 252 -2 300 -16 319 -15 22 -18 22 -275 22 l-259 0 0 -315z"/>
</g>
</svg>
